<svg width="25" height="21" viewBox="0 0 25 21" fill="none" xmlns="http://www.w3.org/2000/svg">
<path d="M3.90625 15.625H0.78125C0.57405 15.625 0.375336 15.7073 0.228823 15.8538C0.0823101 16.0003 0 16.199 0 16.4062L0 19.5312C0 19.7385 0.0823101 19.9372 0.228823 20.0837C0.375336 20.2302 0.57405 20.3125 0.78125 20.3125H3.90625C4.11345 20.3125 4.31216 20.2302 4.45868 20.0837C4.60519 19.9372 4.6875 19.7385 4.6875 19.5312V16.4062C4.6875 16.199 4.60519 16.0003 4.45868 15.8538C4.31216 15.7073 4.11345 15.625 3.90625 15.625ZM3.90625 0H0.78125C0.57405 0 0.375336 0.08231 0.228823 0.228823C0.0823101 0.375336 0 0.57405 0 0.78125L0 3.90625C0 4.11345 0.0823101 4.31216 0.228823 4.45868C0.375336 4.60519 0.57405 4.6875 0.78125 4.6875H3.90625C4.11345 4.6875 4.31216 4.60519 4.45868 4.45868C4.60519 4.31216 4.6875 4.11345 4.6875 3.90625V0.78125C4.6875 0.57405 4.60519 0.375336 4.45868 0.228823C4.31216 0.08231 4.11345 0 3.90625 0ZM3.90625 7.8125H0.78125C0.57405 7.8125 0.375336 7.89481 0.228823 8.04132C0.0823101 8.18784 0 8.38655 0 8.59375L0 11.7188C0 11.926 0.0823101 12.1247 0.228823 12.2712C0.375336 12.4177 0.57405 12.5 0.78125 12.5H3.90625C4.11345 12.5 4.31216 12.4177 4.45868 12.2712C4.60519 12.1247 4.6875 11.926 4.6875 11.7188V8.59375C4.6875 8.38655 4.60519 8.18784 4.45868 8.04132C4.31216 7.89481 4.11345 7.8125 3.90625 7.8125ZM24.2188 16.4062H8.59375C8.38655 16.4062 8.18784 16.4886 8.04132 16.6351C7.89481 16.7816 7.8125 16.9803 7.8125 17.1875V18.75C7.8125 18.9572 7.89481 19.1559 8.04132 19.3024C8.18784 19.4489 8.38655 19.5312 8.59375 19.5312H24.2188C24.426 19.5312 24.6247 19.4489 24.7712 19.3024C24.9177 19.1559 25 18.9572 25 18.75V17.1875C25 16.9803 24.9177 16.7816 24.7712 16.6351C24.6247 16.4886 24.426 16.4062 24.2188 16.4062ZM24.2188 0.78125H8.59375C8.38655 0.78125 8.18784 0.86356 8.04132 1.01007C7.89481 1.15659 7.8125 1.3553 7.8125 1.5625V3.125C7.8125 3.3322 7.89481 3.53091 8.04132 3.67743C8.18784 3.82394 8.38655 3.90625 8.59375 3.90625H24.2188C24.426 3.90625 24.6247 3.82394 24.7712 3.67743C24.9177 3.53091 25 3.3322 25 3.125V1.5625C25 1.3553 24.9177 1.15659 24.7712 1.01007C24.6247 0.86356 24.426 0.78125 24.2188 0.78125ZM24.2188 8.59375H8.59375C8.38655 8.59375 8.18784 8.67606 8.04132 8.82257C7.89481 8.96909 7.8125 9.1678 7.8125 9.375V10.9375C7.8125 11.1447 7.89481 11.3434 8.04132 11.4899C8.18784 11.6364 8.38655 11.7188 8.59375 11.7188H24.2188C24.426 11.7188 24.6247 11.6364 24.7712 11.4899C24.9177 11.3434 25 11.1447 25 10.9375V9.375C25 9.1678 24.9177 8.96909 24.7712 8.82257C24.6247 8.67606 24.426 8.59375 24.2188 8.59375Z" fill="#8C8383"/>
</svg>
