<svg width="25" height="20" viewBox="0 0 25 20" fill="none" xmlns="http://www.w3.org/2000/svg">
<path d="M8.12506 13.75C8.0317 13.75 7.93834 13.7637 7.84928 13.7926C7.34303 13.957 6.81061 14.0625 6.25006 14.0625C5.68952 14.0625 5.15709 13.957 4.65045 13.7926C4.56139 13.7637 4.46842 13.75 4.37506 13.75C1.95084 13.75 -0.0128275 15.7219 6.31046e-05 18.1492C0.00553185 19.175 0.848891 20 1.87506 20H10.6251C11.6512 20 12.4946 19.175 12.5001 18.1492C12.513 15.7219 10.5493 13.75 8.12506 13.75ZM6.25006 12.5C8.32116 12.5 10.0001 10.8211 10.0001 8.75C10.0001 6.67891 8.32116 5 6.25006 5C4.17897 5 2.50006 6.67891 2.50006 8.75C2.50006 10.8211 4.17897 12.5 6.25006 12.5ZM23.1251 0H8.12506C7.09108 0 6.25006 0.869141 6.25006 1.93711V3.75C7.16491 3.75 8.01178 4.01484 8.75006 4.44531V2.5H22.5001V13.75H20.0001V11.25H15.0001V13.75H12.0219C12.768 14.402 13.3157 15.2629 13.5723 16.25H23.1251C24.159 16.25 25.0001 15.3809 25.0001 14.3129V1.93711C25.0001 0.869141 24.159 0 23.1251 0Z" fill="#8C8383"/>
</svg>
